<?xml version="1.0" encoding="utf-8"?>
<!-- Generator: Adobe Illustrator 22.0.1, SVG Export Plug-In . SVG Version: 6.00 Build 0)  -->
<svg version="1.0" id="레이어_1" xmlns="http://www.w3.org/2000/svg" xmlns:xlink="http://www.w3.org/1999/xlink" x="0px"
	 y="0px" viewBox="0 0 556.6 674.3" style="enable-background:new 0 0 556.6 674.3;" xml:space="preserve">
<style type="text/css">
	.st0{fill:#E83E3B;}
	.st1{fill:#F6F3A2;}
</style>
<g>
	<g>
		<path d="M329.7,170.9c-0.1,0.5-0.1,0.8-0.1,0.8C329.6,171.5,329.6,171.2,329.7,170.9z"/>
	</g>
	<g>
		<path class="st0" d="M556.6,278.3C556.6,124.6,432,0,278.3,0S0,124.6,0,278.3c0,104.1,57.1,194.8,141.7,242.5L87.7,656.2
			c-3.5,8.7,2.9,18.1,12.3,18.1h356.8c9.3,0,15.7-9.4,12.3-18.1l-38.4-96.1c-3.1-7.7-12.3-10.7-19.3-6.3
			c-67.9,42.8-157.6,77.4-165,2.8c-0.1-0.6-0.1-1.2-0.2-1.9c10.6,1.2,21.3,1.9,32.2,1.9C432,556.6,556.6,432,556.6,278.3z
			 M322,288.4l-43.7-109.5L154.7,488.4C81.9,445.9,33,366.9,33,276.5C33,141,142.8,31.1,278.3,31.1S523.6,141,523.6,276.5
			S413.8,521.8,278.3,521.8c-10.9,0-21.7-0.7-32.2-2.1c6.1-75.9,47.8-163.3,75.5-220.7C323.3,295.7,323.4,291.8,322,288.4z"/>
	</g>
	<g>
		<path d="M128.9,337.7c1.1,0.6,2.2,1.1,3.2,1.8C131.3,338.8,130.2,338.2,128.9,337.7z"/>
	</g>
	<g>
		<path class="st1" d="M316.7,106.3c0,0-29.3,47.6-25.2,72.6c2.4,8.8,5.2,17.5,8.8,25.8c3.5,8.1,11.2,16.4,21.9,15.1
			c13.3-1.6,23.6-7.1,36.2-11.5c14.4-5,29.9-8.4,44.8-5.3c-5.7-1.2-13.6,2.1-19,3.5c-7.1,1.9-14,4.4-20.7,7.4
			c-13.3,5.9-33.4,15.2-40.4,28.7c-6.8,13-2.6,34.8,8.8,41.8c8.2,5,35.7-6.1,35.7-6.1s-15.5,14.2-27.3,16.2c-1.7,0.3-3.3,0-5.7,1.4
			c-12.3,7.1-9.1,25-0.9,29.8c16.5,9.6,83.7,19.6,95.7,18.3c-20.1,2.1-40.6,2.4-60.6-0.2c-10.3-1.3-20.6-3.4-30.3-7.1
			c-11-4.2-17.8-4.6-25.8,4.6c-7.8,9.1-10.5,23.7-5.5,34.7c4.3,9.4,17.2,15,25.7,19.9c15.2,8.7,44.4,20.4,46.4,40.8
			c-9.9-17.3-52.4-38.5-65.7-42c-18.8-5-24.6,6.7-30.7,21.5c-4.6,11.2-8.5,30.4,2,36.5c3.7,2.2,28.7,11,27.3,17.2
			c0,0-19.9-12.9-29.2-10.6c-9.6,2.3-10.8,2.2-14.2,6.4c-5.8,7.1-18.5,41.4,6.4,48.3c19.4,5.4,33.2,1.7,47.7-3.4
			c8-2.8,16.3-4.3,20.1-11.9c1.9-3.7,3.1-12.1,2.9-16.2c-0.5-12.9-6.8-25.5-16.9-33.6c15.6,3.4,17.9,23.3,27.4,33.5
			c15.3,16.5,36.4,4.6,52.4-7c8.1-5.9,13.9-9.4,20.2-17.4c15.9-20.3-4.2-47.1-9.2-54.9c0,0-19.7-27.5-45.8-26.2
			c0,0,30.4-18.6,67,40.9c20.2,32.9,54.2-38.6,54.3-38.9c6-14.5,19.3-34.8,10.5-50.3c-7-12.3-23-9.2-34.3-8.8
			c-13.2,0.5-32.8-2.9-45.5-6.4c-11.4-3.2-12.1-5.1-23.3-9c19,3.9,22.4,4.5,41.8,5.7c9.9,0.6,43.9,3.7,60.4-3.8
			c16.9-7.6,11.8-43.6,10.3-58.4c-0.6-6.4-7.6-37.6-19.9-36.3c-12.4,1.4-57.7,40.4-99.3,33c0,0,86.7-21.7,87-59.5
			c0,0,3.1-22.1-6.8-39.7c-8.2-14.5-14.1-31.6-34-29.9c-16.7,1.4-2.3,25.6-46.2,40.7c7.1-5.7,20-16.4,24.5-24.3
			c2.9-5.1,3.2-13.4-0.4-18.5c-13.2-18.7-44.8,2.6-57.6,12.7c-12,9.4-28.2,26.2-32.2,42.4c-0.3,1.1-0.4,2-0.5,2.5
			c0,0.3-0.1,0.6-0.1,0.8c0,0,0-0.3,0.1-0.8c0.1-0.8,0.3-1.7,0.5-2.5c2.7-12.2,15.7-54,66.2-75.8c8.4-3.6-1-23.4-18.9-31.9
			c-29.8-14.1-80.8-28-102.2-19c-43.8,18.3-23.5,91.9-23.5,91.9c-18-19-1.1-55.8-20.3-73.6c-7.9-7.3-19.9-8.6-30.3-6
			c-10.4,2.6-19.7,8.4-28.7,14.2c-9.2,5.9-19.6,14.2-18.1,25.1c1.4,9.9,11.8,15.3,19.8,21.2c12.8,9.5,18.8,21.1,21.9,36.6
			c2.5,12.6,4.4,26.1,13,35.6c-8.6,0-15.7-7.3-19-15.2c-3.3-7.9-4-16.7-6.5-25c-6.2-20.9-24.6-37.8-46.3-40.9
			c-15.1-2.1-31.3,2.5-40.1,15.9c-9.6,14.4-1.6,28.2,3.3,42.4c5.2,15-4.8,33.1,7.5,52.3c-29.2-11.3-2-55.2-22.5-63.7
			c-17.4-5.7-26.9,31.6-33,51.1c-0.9,2.9-6.2,24.4-7.4,38.7c-0.7,8,4.1,13.5,11.6,10.5c36.6-14.8,77.6-5.6,110.3,29.1
			c-23.7-18.8-54.6-28-84.7-25.9c-12.5,0.9-24,5.2-33.8,13c-9.5,7.5-9.5,19.8-9.4,31.6c0.2,14.1,1,28.2,16.5,31.6
			c7.3,1.6,9.2-2.7,24.3-4.1c0,0,26.3-2.1,49.3,9.8c1.3,0.5,2.4,1.1,3.2,1.8c-1.1-0.6-2.2-1.2-3.2-1.8c-14.7-6-53.7-2.2-62.1,2.6
			c-20.7,11.8-7.5,34,1.1,50.7c5.4,10.4,13.1,22.1,23.7,27.8c4,2.2,8.8,3,11.8,1.2c15.1-9.2,24.6-6.5,30.9-3.2
			c3.8,2,11.7,12.3,3.8,21.2c7.2-18.9-12.9-22.1-25-15.7c-4.1,2.2-7.7,7.3-7.9,11.9c-0.6,14.3,32.9,37.6,43,30.7
			c9.7-6.7,12.9-16.8,16.5-27.4c4.5-13.2,7.9-25.5,3.6-39.4c-3.2-10.4-9.5-13.9-18.3-17.9c-10.7-4.8-33.7-10.5-45.3-4.6
			c9.9-11.9,29.2-8.7,42.4-6c11.5,2.4,26.3,9.3,37.3,2.1c11.8-7.7,17.8-24,18.9-37.4c1.2-14.2-11.6-10.7-21.3-10.4
			c-10.9,0.2-18.3-11.5-23.3-15.6c-4.5-3.6-22-4.1-22-4.1c7-2.1,18-3.4,24.9,0.9c2.9,1.8,5.4,4.3,8.3,6.3c9.4,6.5,29.6,4.1,38.2-2.6
			c7.9-6.2,12-15.1,16-24.3c9.2-20.6,5.3-38.5,0.1-39.9c-5.6-1.5-11.7,1.3-17.3,2c-10.6,1.5-24.5-4.7-31.1-13.2
			c-10.5-13.5-7.6-33.6-16.8-48c-2.9-4.5-7.3-8.4-12.6-9c7.8-0.4,15.2,4.4,20.1,10.5c4.9,6.1,7.7,13.6,10.7,20.8
			c3,7.2,6.3,14.6,11.9,20.1c15.7,15.7,42.7,1.2,55.3-13.1c14.4-16.3,20.7-35.2,30.9-54.5C285.6,140.8,301.2,115.5,316.7,106.3z"/>
	</g>
	<g>
		<path d="M330.2,168.4c-0.2,0.9-0.4,1.7-0.5,2.5C329.8,170.4,329.9,169.5,330.2,168.4z"/>
	</g>
</g>
</svg>
